<svg id="Layer_35" enable-background="new 0 0 64 64" height="512" viewBox="0 0 64 64" width="512" xmlns="http://www.w3.org/2000/svg"><path d="m24 38v-5.026c-.838.635-1.87 1.026-3 1.026h-6c-1.13 0-2.162-.391-3-1.026v5.026h7.5z"/><path d="m17.323 30h-5.139c.414 1.161 1.514 2 2.816 2h6c1.302 0 2.402-.839 2.816-2h-6.326z"/><path d="m30.035 21.621.965.965.965-.965-.552-6.621h-.826z"/><circle cx="31" cy="8" r="5"/><path d="m40.407 45.644c.213.798.939 1.356 1.765 1.356 1.008 0 1.828-.819 1.828-1.827v-.05l-3.524-14.096c-.213-.851-.785-1.563-1.569-1.956l-2.907-1.453v-9.438l1.619-.324c2.393-.479 4.518-1.934 5.828-3.994l4.346-6.829c.136-.212.207-.458.207-.71 0-.729-.594-1.323-1.323-1.323h-.467c-.431 0-.836.211-1.084.564l-4.813 6.876c-1.123 1.603-2.96 2.56-4.917 2.56h-1.976l.615 7.379-3.035 3.035-3.035-3.035.615-7.379h-1.4c-3.431 0-6.516 1.906-8.05 4.976l-2.991 5.981c-.091.183-.139.387-.139.592v.128c0 .729.594 1.323 1.323 1.323h.167c.522 0 .997-.309 1.209-.786l2.574-5.793c.655-1.471 2.117-2.421 3.727-2.421h1v8.662c0 1.45 1.036 2.691 2.463 2.95l7.092 1.291c.757.138 1.375.707 1.574 1.45z"/><path d="m26 31.642v8.358h-1-5.5c-.827 0-1.5.673-1.5 1.5s.673 1.5 1.5 1.5h8c.827 0 1.5-.673 1.5-1.5v-8.757l-.895-.163c-.79-.143-1.498-.48-2.105-.938z"/><path d="m56.414 49-6 6h3.172l6-6z"/><path d="m50.414 49-6 6h3.172l6-6z"/><path d="m57 57h2v4h-2z"/><path d="m56.414 55h4.586v-4.586z"/><path d="m44.414 49-6 6h3.172l6-6z"/><path d="m39 57h2v4h-2z"/><path d="m37 49v4.586l4.586-4.586z"/><path d="m23 57h2v4h-2z"/><path d="m27 55v-4.586l-4.586 4.586z"/><path d="m22.414 49-6 6h3.172l6-6z"/><path d="m5 57h2v4h-2z"/><path d="m16.414 49-6 6h3.172l6-6z"/><path d="m10.414 49-6 6h3.172l6-6z"/><path d="m3 49v4.586l4.586-4.586z"/></svg>